<svg width="206" height="42" viewBox="0 0 206 42" fill="none" xmlns="http://www.w3.org/2000/svg">
<g filter="url(#filter0_d_3101_21)">
<path d="M52.132 30.5C51.712 30.5 51.362 30.36 51.082 30.08C50.8253 29.8 50.697 29.4617 50.697 29.065V7.4C50.697 7.00333 50.8253 6.67667 51.082 6.42C51.362 6.14 51.7003 6 52.097 6H64.382C64.7787 6 65.117 6.12833 65.397 6.385C65.677 6.64167 65.817 6.96833 65.817 7.365C65.817 7.73833 65.677 8.05333 65.397 8.31C65.117 8.56667 64.7787 8.695 64.382 8.695H53.357L53.567 8.415V16.99L53.392 16.605H62.807C63.2037 16.605 63.542 16.745 63.822 17.025C64.102 17.2817 64.242 17.6083 64.242 18.005C64.242 18.355 64.102 18.67 63.822 18.95C63.542 19.2067 63.2037 19.335 62.807 19.335H53.322L53.567 19.02V29.065C53.567 29.4617 53.427 29.8 53.147 30.08C52.867 30.36 52.5287 30.5 52.132 30.5ZM71.0894 30.5C70.6928 30.5 70.3544 30.36 70.0744 30.08C69.8178 29.8 69.6894 29.4617 69.6894 29.065V13.805C69.6894 13.4083 69.8178 13.0817 70.0744 12.825C70.3544 12.545 70.6928 12.405 71.0894 12.405C71.5094 12.405 71.8478 12.545 72.1044 12.825C72.3611 13.0817 72.4894 13.4083 72.4894 13.805V18.425L72.0694 17.69C72.2094 16.9667 72.4544 16.2667 72.8044 15.59C73.1778 14.89 73.6444 14.2717 74.2044 13.735C74.7644 13.175 75.4061 12.7433 76.1294 12.44C76.8528 12.1133 77.6461 11.95 78.5094 11.95C79.0228 11.95 79.4894 12.0783 79.9094 12.335C80.3528 12.5683 80.5744 12.9067 80.5744 13.35C80.5744 13.84 80.4461 14.2017 80.1894 14.435C79.9328 14.6683 79.6411 14.785 79.3144 14.785C79.0111 14.785 78.7194 14.7267 78.4394 14.61C78.1594 14.47 77.8094 14.4 77.3894 14.4C76.8061 14.4 76.2228 14.5633 75.6394 14.89C75.0794 15.1933 74.5544 15.6367 74.0644 16.22C73.5978 16.8033 73.2128 17.4683 72.9094 18.215C72.6294 18.9383 72.4894 19.72 72.4894 20.56V29.065C72.4894 29.4617 72.3494 29.8 72.0694 30.08C71.8128 30.36 71.4861 30.5 71.0894 30.5ZM91.3161 30.85C89.4495 30.85 87.8161 30.4533 86.4161 29.66C85.0161 28.8667 83.9195 27.7817 83.1261 26.405C82.3561 25.005 81.9711 23.395 81.9711 21.575C81.9711 19.545 82.3678 17.8183 83.1611 16.395C83.9778 14.9483 85.0278 13.8517 86.3111 13.105C87.6178 12.335 88.9945 11.95 90.4411 11.95C91.5145 11.95 92.5528 12.1483 93.5561 12.545C94.5595 12.9417 95.4461 13.525 96.2161 14.295C96.9861 15.0417 97.6045 15.9517 98.0711 17.025C98.5378 18.075 98.7828 19.2533 98.8061 20.56C98.8061 20.9333 98.6661 21.2483 98.3861 21.505C98.1061 21.7617 97.7795 21.89 97.4061 21.89H83.5811L82.9511 19.475H96.4261L95.8661 19.965V19.195C95.7728 18.2383 95.4461 17.4217 94.8861 16.745C94.3495 16.045 93.6845 15.5083 92.8911 15.135C92.1211 14.7617 91.3045 14.575 90.4411 14.575C89.7411 14.575 89.0411 14.7033 88.3411 14.96C87.6645 15.1933 87.0461 15.59 86.4861 16.15C85.9495 16.6867 85.5061 17.3867 85.1561 18.25C84.8295 19.1133 84.6661 20.1517 84.6661 21.365C84.6661 22.7183 84.9345 23.9083 85.4711 24.935C86.0311 25.9617 86.8011 26.7783 87.7811 27.385C88.7611 27.9683 89.9045 28.26 91.2111 28.26C92.0278 28.26 92.7395 28.155 93.3461 27.945C93.9528 27.735 94.4778 27.4783 94.9211 27.175C95.3645 26.8483 95.7378 26.5217 96.0411 26.195C96.3445 25.985 96.6361 25.88 96.9161 25.88C97.2661 25.88 97.5461 25.9967 97.7561 26.23C97.9895 26.4633 98.1061 26.7433 98.1061 27.07C98.1061 27.4667 97.9195 27.8167 97.5461 28.12C96.8928 28.8433 96.0061 29.485 94.8861 30.045C93.7661 30.5817 92.5761 30.85 91.3161 30.85ZM111.38 30.85C109.513 30.85 107.88 30.4533 106.48 29.66C105.08 28.8667 103.983 27.7817 103.19 26.405C102.42 25.005 102.035 23.395 102.035 21.575C102.035 19.545 102.431 17.8183 103.225 16.395C104.041 14.9483 105.091 13.8517 106.375 13.105C107.681 12.335 109.058 11.95 110.505 11.95C111.578 11.95 112.616 12.1483 113.62 12.545C114.623 12.9417 115.51 13.525 116.28 14.295C117.05 15.0417 117.668 15.9517 118.135 17.025C118.601 18.075 118.846 19.2533 118.87 20.56C118.87 20.9333 118.73 21.2483 118.45 21.505C118.17 21.7617 117.843 21.89 117.47 21.89H103.645L103.015 19.475H116.49L115.93 19.965V19.195C115.836 18.2383 115.51 17.4217 114.95 16.745C114.413 16.045 113.748 15.5083 112.955 15.135C112.185 14.7617 111.368 14.575 110.505 14.575C109.805 14.575 109.105 14.7033 108.405 14.96C107.728 15.1933 107.11 15.59 106.55 16.15C106.013 16.6867 105.57 17.3867 105.22 18.25C104.893 19.1133 104.73 20.1517 104.73 21.365C104.73 22.7183 104.998 23.9083 105.535 24.935C106.095 25.9617 106.865 26.7783 107.845 27.385C108.825 27.9683 109.968 28.26 111.275 28.26C112.091 28.26 112.803 28.155 113.41 27.945C114.016 27.735 114.541 27.4783 114.985 27.175C115.428 26.8483 115.801 26.5217 116.105 26.195C116.408 25.985 116.7 25.88 116.98 25.88C117.33 25.88 117.61 25.9967 117.82 26.23C118.053 26.4633 118.17 26.7433 118.17 27.07C118.17 27.4667 117.983 27.8167 117.61 28.12C116.956 28.8433 116.07 29.485 114.95 30.045C113.83 30.5817 112.64 30.85 111.38 30.85ZM131.828 12.125C133.368 12.125 134.581 12.4633 135.468 13.14C136.378 13.7933 137.02 14.68 137.393 15.8C137.79 16.8967 137.988 18.1217 137.988 19.475V29.065C137.988 29.4617 137.848 29.8 137.568 30.08C137.311 30.36 136.985 30.5 136.588 30.5C136.191 30.5 135.853 30.36 135.573 30.08C135.316 29.8 135.188 29.4617 135.188 29.065V19.475C135.188 18.5883 135.06 17.795 134.803 17.095C134.546 16.3717 134.115 15.8 133.508 15.38C132.925 14.9367 132.12 14.715 131.093 14.715C130.136 14.715 129.261 14.9367 128.468 15.38C127.675 15.8 127.045 16.3717 126.578 17.095C126.111 17.795 125.878 18.5883 125.878 19.475V29.065C125.878 29.4617 125.738 29.8 125.458 30.08C125.201 30.36 124.875 30.5 124.478 30.5C124.081 30.5 123.743 30.36 123.463 30.08C123.206 29.8 123.078 29.4617 123.078 29.065V6C123.078 5.60333 123.206 5.27667 123.463 5.02C123.743 4.74 124.081 4.6 124.478 4.6C124.898 4.6 125.236 4.74 125.493 5.02C125.75 5.27667 125.878 5.60333 125.878 6V16.465L125.178 17.235C125.295 16.6283 125.551 16.0217 125.948 15.415C126.345 14.785 126.846 14.225 127.453 13.735C128.06 13.245 128.736 12.86 129.483 12.58C130.23 12.2767 131.011 12.125 131.828 12.125ZM158.086 12.23C158.482 12.23 158.809 12.37 159.066 12.65C159.346 12.9067 159.486 13.2333 159.486 13.63V29.065C159.486 29.4617 159.346 29.8 159.066 30.08C158.809 30.36 158.482 30.5 158.086 30.5C157.666 30.5 157.327 30.36 157.071 30.08C156.814 29.8 156.686 29.4617 156.686 29.065V25.74L157.351 25.67C157.351 26.1833 157.176 26.7433 156.826 27.35C156.476 27.9567 155.997 28.5283 155.391 29.065C154.784 29.5783 154.061 30.01 153.221 30.36C152.404 30.6867 151.517 30.85 150.561 30.85C148.974 30.85 147.551 30.4417 146.291 29.625C145.031 28.785 144.027 27.6533 143.281 26.23C142.557 24.8067 142.196 23.185 142.196 21.365C142.196 19.5217 142.557 17.9 143.281 16.5C144.027 15.0767 145.031 13.9683 146.291 13.175C147.551 12.3583 148.951 11.95 150.491 11.95C151.494 11.95 152.427 12.1133 153.291 12.44C154.154 12.7667 154.901 13.21 155.531 13.77C156.184 14.33 156.686 14.9483 157.036 15.625C157.409 16.3017 157.596 16.9783 157.596 17.655L156.686 17.445V13.63C156.686 13.2333 156.814 12.9067 157.071 12.65C157.327 12.37 157.666 12.23 158.086 12.23ZM150.876 28.26C152.042 28.26 153.069 27.9567 153.956 27.35C154.866 26.7433 155.566 25.9267 156.056 24.9C156.569 23.85 156.826 22.6717 156.826 21.365C156.826 20.0817 156.569 18.9267 156.056 17.9C155.566 16.85 154.866 16.0333 153.956 15.45C153.069 14.8433 152.042 14.54 150.876 14.54C149.732 14.54 148.706 14.8317 147.796 15.415C146.909 15.9983 146.209 16.8033 145.696 17.83C145.182 18.8567 144.926 20.035 144.926 21.365C144.926 22.6717 145.171 23.85 145.661 24.9C146.174 25.9267 146.874 26.7433 147.761 27.35C148.671 27.9567 149.709 28.26 150.876 28.26ZM173.67 11.95C175.256 11.95 176.505 12.2767 177.415 12.93C178.325 13.5833 178.966 14.4583 179.34 15.555C179.736 16.6517 179.935 17.8767 179.935 19.23V29.065C179.935 29.4617 179.795 29.8 179.515 30.08C179.258 30.36 178.931 30.5 178.535 30.5C178.138 30.5 177.8 30.36 177.52 30.08C177.263 29.8 177.135 29.4617 177.135 29.065V19.3C177.135 18.4133 176.995 17.62 176.715 16.92C176.458 16.1967 176.015 15.625 175.385 15.205C174.778 14.7617 173.938 14.54 172.865 14.54C171.885 14.54 170.986 14.7617 170.17 15.205C169.353 15.625 168.7 16.1967 168.21 16.92C167.72 17.62 167.475 18.4133 167.475 19.3V29.065C167.475 29.4617 167.335 29.8 167.055 30.08C166.798 30.36 166.471 30.5 166.075 30.5C165.678 30.5 165.34 30.36 165.06 30.08C164.803 29.8 164.675 29.4617 164.675 29.065V13.805C164.675 13.4083 164.803 13.0817 165.06 12.825C165.34 12.545 165.678 12.405 166.075 12.405C166.495 12.405 166.833 12.545 167.09 12.825C167.346 13.0817 167.475 13.4083 167.475 13.805V16.29L166.775 17.06C166.891 16.4533 167.16 15.8467 167.58 15.24C168 14.61 168.525 14.05 169.155 13.56C169.785 13.07 170.485 12.685 171.255 12.405C172.025 12.1017 172.83 11.95 173.67 11.95ZM200.024 4.6C200.421 4.6 200.748 4.74 201.004 5.02C201.284 5.27667 201.424 5.60333 201.424 6V29.065C201.424 29.4617 201.284 29.8 201.004 30.08C200.748 30.36 200.421 30.5 200.024 30.5C199.604 30.5 199.266 30.36 199.009 30.08C198.753 29.8 198.624 29.4617 198.624 29.065V25.74L199.289 25.495C199.289 26.055 199.114 26.65 198.764 27.28C198.414 27.8867 197.936 28.4583 197.329 28.995C196.723 29.5317 195.999 29.975 195.159 30.325C194.343 30.675 193.456 30.85 192.499 30.85C190.936 30.85 189.513 30.4417 188.229 29.625C186.969 28.8083 185.966 27.6883 185.219 26.265C184.496 24.8417 184.134 23.22 184.134 21.4C184.134 19.5567 184.496 17.9233 185.219 16.5C185.966 15.0767 186.969 13.9683 188.229 13.175C189.489 12.3583 190.889 11.95 192.429 11.95C193.409 11.95 194.331 12.1133 195.194 12.44C196.058 12.7667 196.804 13.21 197.434 13.77C198.088 14.33 198.601 14.9483 198.974 15.625C199.348 16.3017 199.534 16.9783 199.534 17.655L198.624 17.445V6C198.624 5.60333 198.753 5.27667 199.009 5.02C199.266 4.74 199.604 4.6 200.024 4.6ZM192.814 28.26C193.981 28.26 195.008 27.9683 195.894 27.385C196.804 26.7783 197.504 25.9617 197.994 24.935C198.508 23.885 198.764 22.7067 198.764 21.4C198.764 20.07 198.508 18.8917 197.994 17.865C197.504 16.8383 196.804 16.0333 195.894 15.45C195.008 14.8433 193.981 14.54 192.814 14.54C191.671 14.54 190.644 14.8433 189.734 15.45C188.848 16.0333 188.148 16.8383 187.634 17.865C187.121 18.8917 186.864 20.07 186.864 21.4C186.864 22.6833 187.121 23.85 187.634 24.9C188.148 25.9267 188.848 26.7433 189.734 27.35C190.644 27.9567 191.671 28.26 192.814 28.26Z" fill="white"/>
<path d="M28.1011 17.5C28.1011 17.0945 28.3801 16.7398 28.7776 16.6478C31.7445 15.9559 33.8158 13.3427 33.8158 10.2871C33.8158 6.68162 30.89 3.75 27.2975 3.75C24.2319 3.75 21.5476 5.93303 20.9194 8.93851L28.1011 17.5ZM28.1011 17.5C28.1011 17.9052 28.3798 18.2598 28.7769 18.3521L28.1011 17.5ZM20.9194 26.0615C21.5476 29.067 24.2319 31.25 27.2975 31.25C30.89 31.25 33.8158 28.3184 33.8158 24.7129C33.8158 21.6573 31.7445 19.0441 28.7776 18.3522L20.9194 26.0615ZM20.9194 26.0615C20.8351 25.6567 20.4785 25.3654 20.0639 25.3654C19.6494 25.3654 19.2928 25.6567 19.2085 26.0615C18.5801 29.067 15.8957 31.25 12.8301 31.25C9.23764 31.25 6.31186 28.3184 6.31186 24.7129C6.31186 21.6573 8.38316 19.0441 11.3501 18.3522C11.7476 18.2602 12.0266 17.9055 12.0266 17.5C12.0266 17.0948 11.7479 16.7402 11.3508 16.6479L20.9194 26.0615ZM19.2085 8.93851C18.5801 5.93301 15.8957 3.75 12.8301 3.75C9.23764 3.75 6.31186 6.68162 6.31186 10.2871C6.31186 13.3427 8.38316 15.9559 11.3501 16.6478L19.2085 8.93851ZM19.2085 8.93851C19.2928 9.34326 19.6494 9.63464 20.0639 9.63464C20.4783 9.63464 20.8349 9.34341 20.9193 8.93882L19.2085 8.93851ZM12.8301 33C15.8854 33 18.636 31.2954 20.0639 28.7195C21.4916 31.2954 24.2421 33 27.2975 33C31.8572 33 35.5638 29.2816 35.5638 24.7129C35.5638 21.6523 33.9198 18.9359 31.3694 17.5C33.9198 16.0641 35.5638 13.3477 35.5638 10.2871C35.5638 5.7184 31.8572 2 27.2975 2C24.2421 2 21.4916 3.70458 20.0639 6.2805C18.636 3.70458 15.8854 2 12.8301 2C8.27048 2 4.56384 5.7184 4.56384 10.2871C4.56384 13.3477 6.20788 16.0641 8.75833 17.5C6.20788 18.9359 4.56384 21.6523 4.56384 24.7129C4.56384 29.2816 8.27048 33 12.8301 33Z" fill="#3DB370" stroke="#3DB370"/>
</g>
<defs>
<filter id="filter0_d_3101_21" x="0" y="0" width="208" height="43" filterUnits="userSpaceOnUse" color-interpolation-filters="sRGB">
<feFlood flood-opacity="0" result="BackgroundImageFix"/>
<feColorMatrix in="SourceAlpha" type="matrix" values="0 0 0 0 0 0 0 0 0 0 0 0 0 0 0 0 0 0 127 0" result="hardAlpha"/>
<feOffset dy="4"/>
<feGaussianBlur stdDeviation="2"/>
<feComposite in2="hardAlpha" operator="out"/>
<feColorMatrix type="matrix" values="0 0 0 0 0 0 0 0 0 0 0 0 0 0 0 0 0 0 0.25 0"/>
<feBlend mode="normal" in2="BackgroundImageFix" result="effect1_dropShadow_3101_21"/>
<feBlend mode="normal" in="SourceGraphic" in2="effect1_dropShadow_3101_21" result="shape"/>
</filter>
</defs>
</svg>
